<svg xmlns="http://www.w3.org/2000/svg" viewBox="0 0 264.71 274.05"><defs><style>.cls-1{fill:#00a79d;}.cls-2{fill:#231f20;}</style></defs><title>Asset 1</title><g id="Layer_2" data-name="Layer 2"><g id="Layer_1-2" data-name="Layer 1"><path class="cls-1" d="M71.36,231.41a151.25,151.25,0,0,1-49.8-50.24C8.79,160.05.39,134.88,5.09,112.74,9.94,90.6,27.9,71.19,46.61,56.3s38.15-25.56,57.44-26.43,38.26,8.19,57.53,14.7,38.86,10.3,56.32,21.18,33.11,28.82,31.87,46.6-19.33,35.53-28.11,58.57-8.66,51.51-21.34,66.86-38.3,17.87-62.4,15.43S91.23,243.65,71.36,231.41Z"/><path class="cls-2" d="M146.43,274.05C116,274.05,74.81,262,43.33,242.7h0C24.47,231.15,6.66,220.25,1.5,199.84c-6.74-26.66,10.83-60.78,21.33-81.17,1.44-2.79,2.77-5.23,4.06-7.59C31.58,102.47,35,96.25,36,86.19c1.15-10.76-1.17-17.9-3.22-24.2-1.77-5.46-3.44-10.61-2.41-16.85,4.15-25.39,47.84-40.47,74.41-44,24.84-3.31,51.89.71,76.16,11.33,25.87,11.32,47.07,29.2,61.32,51.7,22,34.75,28.06,65.54,17,86.7-8.85,17-25.79,23.64-42.18,30.08s-31.65,12.45-36.75,28.2c-3.5,10.8-.1,19.2,3.19,27.31,3.19,7.86,6.2,15.28,1.57,23.2-3.4,5.82-9.81,9.94-19,12.26A81.43,81.43,0,0,1,146.43,274.05ZM122.4,4A127.93,127.93,0,0,0,105.35,5.1C78,8.74,38,23.77,34.35,45.79c-.86,5.28.59,9.77,2.28,15C38.8,67.43,41.25,75,40,86.62,38.86,97.46,35.31,104,30.4,113c-1.28,2.34-2.6,4.77-4,7.51C16.15,140.39-1,173.67,5.38,198.86c4.76,18.82,21.9,29.32,40,40.43h0c38.2,23.39,90.78,36,119.72,28.74,8.16-2,13.73-5.54,16.57-10.4,3.64-6.22,1.23-12.16-1.82-19.68-3.4-8.37-7.24-17.85-3.3-30,5.69-17.55,21.92-23.93,39.1-30.69,15.7-6.17,31.93-12.56,40.09-28.21,10.35-19.84,4.36-49.22-16.86-82.71C214.74,28.11,168.56,4,122.4,4Z"/></g></g></svg>